<mxfile scale="5" border="0" disableSvgWarning="true"><diagram id="3271Gc9gElnyx4fTgd_W" name="第 1 页"><mxGraphModel dx="2726" dy="2098" grid="1" gridSize="16" guides="1" tooltips="1" connect="0" arrows="1" fold="1" page="1" pageScale="1" pageWidth="827" pageHeight="1169" math="0" shadow="0"><root><mxCell id="0"/><mxCell id="1" parent="0"/><mxCell id="14" value="" style="edgeStyle=none;html=1;fontSize=18;strokeWidth=2;fontStyle=1" parent="1" source="2" target="13" edge="1"><mxGeometry relative="1" as="geometry"/></mxCell><mxCell id="2" value="创建监听socket以及绑定IP" style="rounded=0;whiteSpace=wrap;html=1;fontSize=18;strokeWidth=2;fontStyle=1" parent="1" vertex="1"><mxGeometry x="140" y="290" width="120" height="60" as="geometry"/></mxCell><mxCell id="16" value="" style="edgeStyle=none;html=1;fontSize=18;strokeWidth=2;fontStyle=1" parent="1" source="13" target="15" edge="1"><mxGeometry relative="1" as="geometry"/></mxCell><mxCell id="13" value="循环开始？" style="rhombus;whiteSpace=wrap;html=1;rounded=0;fontSize=18;strokeWidth=2;fontStyle=1" parent="1" vertex="1"><mxGeometry x="120" y="390" width="160" height="60" as="geometry"/></mxCell><mxCell id="20" value="" style="edgeStyle=none;html=1;fontSize=18;strokeWidth=2;fontStyle=1" parent="1" source="15" target="19" edge="1"><mxGeometry relative="1" as="geometry"/></mxCell><mxCell id="15" value="更新拷贝fds_set" style="whiteSpace=wrap;html=1;rounded=0;fontSize=18;strokeWidth=2;fontStyle=1" parent="1" vertex="1"><mxGeometry x="140" y="510" width="120" height="60" as="geometry"/></mxCell><mxCell id="22" value="" style="edgeStyle=none;html=1;fontSize=18;strokeWidth=2;fontStyle=1" parent="1" source="19" target="21" edge="1"><mxGeometry relative="1" as="geometry"/></mxCell><mxCell id="19" value="启用select监听创建的socket(非阻塞）" style="rhombus;whiteSpace=wrap;html=1;rounded=0;fontSize=18;strokeWidth=2;fontStyle=1" parent="1" vertex="1"><mxGeometry x="60" y="625" width="280" height="112" as="geometry"/></mxCell><mxCell id="25" value="" style="edgeStyle=none;html=1;fontSize=18;strokeWidth=2;fontStyle=1" parent="1" source="21" target="24" edge="1"><mxGeometry relative="1" as="geometry"/></mxCell><mxCell id="21" value="accept客户的请求，更新用户表信息，分配FIFO" style="whiteSpace=wrap;html=1;rounded=0;fontSize=18;strokeWidth=2;fontStyle=1" parent="1" vertex="1"><mxGeometry x="140" y="790" width="116" height="90" as="geometry"/></mxCell><mxCell id="23" value="有客户连接" style="text;html=1;align=center;verticalAlign=middle;resizable=0;points=[];autosize=1;strokeColor=none;fillColor=none;fontSize=18;strokeWidth=2;fontStyle=1" parent="1" vertex="1"><mxGeometry x="201" y="748" width="112" height="32" as="geometry"/></mxCell><mxCell id="24" value="开启线程同客户端通信" style="shape=step;perimeter=stepPerimeter;whiteSpace=wrap;html=1;fixedSize=1;rounded=0;fontSize=18;strokeWidth=2;fontStyle=1" parent="1" vertex="1"><mxGeometry x="110" y="910" width="180" height="60" as="geometry"/></mxCell><mxCell id="31" value="" style="endArrow=none;html=1;entryX=1;entryY=0.5;entryDx=0;entryDy=0;exitX=0.5;exitY=1;exitDx=0;exitDy=0;fontSize=18;strokeWidth=2;fontStyle=1" parent="1" source="33" target="19" edge="1"><mxGeometry width="50" height="50" relative="1" as="geometry"><mxPoint y="960" as="sourcePoint"/><mxPoint x="360" y="650" as="targetPoint"/><Array as="points"><mxPoint x="-15" y="1040"/><mxPoint x="400" y="1040"/><mxPoint x="400" y="680"/></Array></mxGeometry></mxCell><mxCell id="32" value="" style="endArrow=none;html=1;entryX=0.5;entryY=1;entryDx=0;entryDy=0;fontSize=18;strokeWidth=2;fontStyle=1" parent="1" target="24" edge="1"><mxGeometry width="50" height="50" relative="1" as="geometry"><mxPoint x="200" y="1040" as="sourcePoint"/><mxPoint x="360" y="650" as="targetPoint"/></mxGeometry></mxCell><mxCell id="35" value="" style="edgeStyle=none;html=1;fontSize=18;strokeWidth=2;fontStyle=1" parent="1" source="33" target="34" edge="1"><mxGeometry relative="1" as="geometry"/></mxCell><mxCell id="33" value="具体的客户端sock变化" style="rhombus;whiteSpace=wrap;html=1;fontSize=18;strokeWidth=2;fontStyle=1" parent="1" vertex="1"><mxGeometry x="-110" y="900" width="190" height="92" as="geometry"/></mxCell><mxCell id="34" value="接受一封装好的HIP数据，放入sFIFLO" style="whiteSpace=wrap;html=1;fontSize=18;strokeWidth=2;fontStyle=1" parent="1" vertex="1"><mxGeometry x="-75" y="780" width="123" height="68" as="geometry"/></mxCell><mxCell id="36" value="是" style="text;html=1;align=center;verticalAlign=middle;resizable=0;points=[];autosize=1;strokeColor=none;fillColor=none;fontSize=18;strokeWidth=2;fontStyle=1" parent="1" vertex="1"><mxGeometry x="-19" y="864" width="48" height="32" as="geometry"/></mxCell><mxCell id="37" value="否" style="text;html=1;align=center;verticalAlign=middle;resizable=0;points=[];autosize=1;strokeColor=none;fillColor=none;fontSize=18;strokeWidth=2;fontStyle=1" parent="1" vertex="1"><mxGeometry x="-154" y="914" width="48" height="32" as="geometry"/></mxCell><mxCell id="38" value="" style="endArrow=none;html=1;exitX=-0.013;exitY=0.522;exitDx=0;exitDy=0;exitPerimeter=0;entryX=0;entryY=0.5;entryDx=0;entryDy=0;fontSize=18;strokeWidth=2;fontStyle=1" parent="1" target="13" edge="1"><mxGeometry width="50" height="50" relative="1" as="geometry"><mxPoint x="-112.47000000000025" y="946.1119999999996" as="sourcePoint"/><mxPoint x="-180" y="942" as="targetPoint"/><Array as="points"><mxPoint x="-111" y="420"/></Array></mxGeometry></mxCell><mxCell id="39" value="" style="endArrow=none;html=1;exitX=0.5;exitY=0;exitDx=0;exitDy=0;fontSize=18;strokeWidth=2;fontStyle=1" parent="1" source="34" edge="1"><mxGeometry width="50" height="50" relative="1" as="geometry"><mxPoint x="310" y="690" as="sourcePoint"/><mxPoint x="-15" y="420" as="targetPoint"/></mxGeometry></mxCell><mxCell id="40" value="是" style="text;html=1;align=center;verticalAlign=middle;resizable=0;points=[];autosize=1;strokeColor=none;fillColor=none;fontSize=18;strokeWidth=2;fontStyle=1" parent="1" vertex="1"><mxGeometry x="201" y="464" width="48" height="32" as="geometry"/></mxCell><mxCell id="41" value="无客户连接" style="text;html=1;align=center;verticalAlign=middle;resizable=0;points=[];autosize=1;strokeColor=none;fillColor=none;fontSize=18;strokeWidth=2;fontStyle=1" parent="1" vertex="1"><mxGeometry x="313" y="631" width="112" height="32" as="geometry"/></mxCell><mxCell id="44" value="Linux网络编程 服务端思路" style="text;html=1;strokeColor=none;fillColor=none;align=center;verticalAlign=middle;whiteSpace=wrap;rounded=0;fontSize=21;fontStyle=1" parent="1" vertex="1"><mxGeometry x="-160" y="115" width="300" height="70" as="geometry"/></mxCell><mxCell id="47" value="&lt;span style=&quot;font-size: 18px;&quot;&gt;线程一，管理新连接及接受HIP数据&lt;/span&gt;" style="text;html=1;strokeColor=none;fillColor=none;align=center;verticalAlign=middle;whiteSpace=wrap;rounded=0;fontSize=18;strokeWidth=2;fontStyle=1" parent="1" vertex="1"><mxGeometry x="140" y="176" width="120" height="60" as="geometry"/></mxCell><mxCell id="48" value="线程二，管理心跳" style="text;html=1;strokeColor=none;fillColor=none;align=center;verticalAlign=middle;whiteSpace=wrap;rounded=0;fontSize=18;strokeWidth=2;fontStyle=1" parent="1" vertex="1"><mxGeometry x="532" y="368" width="140" height="40" as="geometry"/></mxCell><mxCell id="54" value="" style="edgeStyle=none;html=1;fontSize=18;strokeWidth=2;fontStyle=1" parent="1" target="53" edge="1"><mxGeometry relative="1" as="geometry"><mxPoint x="602" y="543" as="sourcePoint"/></mxGeometry></mxCell><mxCell id="69" style="edgeStyle=none;html=1;exitX=1;exitY=0.5;exitDx=0;exitDy=0;fontSize=18;strokeWidth=2;fontStyle=1" parent="1" edge="1"><mxGeometry relative="1" as="geometry"><mxPoint x="610" y="1120" as="targetPoint"/><mxPoint x="670" y="503" as="sourcePoint"/><Array as="points"><mxPoint x="830" y="503"/><mxPoint x="830" y="1120"/></Array></mxGeometry></mxCell><mxCell id="52" value="&lt;font style=&quot;font-size: 18px;&quot;&gt;循环开始？&lt;/font&gt;" style="rhombus;whiteSpace=wrap;html=1;fontSize=18;strokeWidth=2;fontStyle=1" parent="1" vertex="1"><mxGeometry x="512" y="463" width="180" height="80" as="geometry"/></mxCell><mxCell id="57" value="" style="edgeStyle=none;html=1;fontSize=18;strokeWidth=2;fontStyle=1" parent="1" source="53" target="56" edge="1"><mxGeometry relative="1" as="geometry"/></mxCell><mxCell id="53" value="&lt;font style=&quot;font-size: 18px;&quot;&gt;获取当前的时间戳&lt;/font&gt;" style="whiteSpace=wrap;html=1;fontSize=18;strokeWidth=2;fontStyle=1" parent="1" vertex="1"><mxGeometry x="542" y="593" width="120" height="60" as="geometry"/></mxCell><mxCell id="55" value="是" style="text;html=1;align=center;verticalAlign=middle;resizable=0;points=[];autosize=1;strokeColor=none;fillColor=none;fontSize=18;strokeWidth=2;fontStyle=1" parent="1" vertex="1"><mxGeometry x="598" y="547" width="48" height="32" as="geometry"/></mxCell><mxCell id="66" value="" style="edgeStyle=none;html=1;fontSize=18;strokeWidth=2;fontStyle=1" parent="1" source="56" target="65" edge="1"><mxGeometry relative="1" as="geometry"/></mxCell><mxCell id="56" value="逐个对比上一时间，超时？" style="rhombus;whiteSpace=wrap;html=1;fontSize=18;strokeWidth=2;fontStyle=1" parent="1" vertex="1"><mxGeometry x="502" y="703" width="200" height="80" as="geometry"/></mxCell><mxCell id="58" value="" style="endArrow=none;html=1;fontSize=18;entryX=1;entryY=0.5;entryDx=0;entryDy=0;strokeWidth=2;fontStyle=1" parent="1" target="13" edge="1"><mxGeometry width="50" height="50" relative="1" as="geometry"><mxPoint x="200" y="1122" as="sourcePoint"/><mxPoint x="330" y="420" as="targetPoint"/><Array as="points"><mxPoint x="420" y="1120"/><mxPoint x="420" y="740"/><mxPoint x="420" y="420"/></Array></mxGeometry></mxCell><mxCell id="59" value="" style="ellipse;whiteSpace=wrap;html=1;aspect=fixed;fontSize=18;fillColor=#000000;strokeWidth=2;fontStyle=1" parent="1" vertex="1"><mxGeometry x="180" y="1100" width="40" height="40" as="geometry"/></mxCell><mxCell id="61" value="线程关闭" style="text;html=1;align=center;verticalAlign=middle;resizable=0;points=[];autosize=1;strokeColor=none;fillColor=none;fontSize=18;strokeWidth=2;fontStyle=1" parent="1" vertex="1"><mxGeometry x="197" y="1124" width="96" height="32" as="geometry"/></mxCell><mxCell id="62" value="" style="endArrow=none;html=1;fontSize=18;entryX=1;entryY=0.5;entryDx=0;entryDy=0;exitX=0.5;exitY=0;exitDx=0;exitDy=0;strokeWidth=2;fontStyle=1" parent="1" source="67" target="56" edge="1"><mxGeometry width="50" height="50" relative="1" as="geometry"><mxPoint x="742" y="833" as="sourcePoint"/><mxPoint x="412" y="873" as="targetPoint"/><Array as="points"><mxPoint x="752" y="743"/></Array></mxGeometry></mxCell><mxCell id="63" value="" style="endArrow=none;html=1;fontSize=18;entryX=0.5;entryY=1;entryDx=0;entryDy=0;strokeWidth=2;fontStyle=1" parent="1" target="56" edge="1"><mxGeometry width="50" height="50" relative="1" as="geometry"><mxPoint x="602" y="853" as="sourcePoint"/><mxPoint x="412" y="873" as="targetPoint"/></mxGeometry></mxCell><mxCell id="64" value="是" style="text;html=1;align=center;verticalAlign=middle;resizable=0;points=[];autosize=1;strokeColor=none;fillColor=none;fontSize=18;strokeWidth=2;fontStyle=1" parent="1" vertex="1"><mxGeometry x="598" y="797" width="48" height="32" as="geometry"/></mxCell><mxCell id="65" value="用户表中删除客户端" style="whiteSpace=wrap;html=1;fontSize=18;strokeWidth=2;fontStyle=1" parent="1" vertex="1"><mxGeometry x="542" y="833" width="120" height="60" as="geometry"/></mxCell><mxCell id="67" value="发送正常心跳包" style="rounded=0;whiteSpace=wrap;html=1;fontSize=18;strokeWidth=2;fontStyle=1" parent="1" vertex="1"><mxGeometry x="692" y="833" width="120" height="60" as="geometry"/></mxCell><mxCell id="70" value="否" style="text;html=1;align=center;verticalAlign=middle;resizable=0;points=[];autosize=1;strokeColor=none;fillColor=none;fontSize=18;strokeWidth=2;fontStyle=1" parent="1" vertex="1"><mxGeometry x="753" y="797" width="48" height="32" as="geometry"/></mxCell><mxCell id="71" value="" style="ellipse;whiteSpace=wrap;html=1;aspect=fixed;fontSize=18;fillColor=#000000;strokeWidth=2;fontStyle=1" parent="1" vertex="1"><mxGeometry x="579.25" y="1097.25" width="42.75" height="42.75" as="geometry"/></mxCell><mxCell id="72" value="线程关闭" style="text;html=1;align=center;verticalAlign=middle;resizable=0;points=[];autosize=1;strokeColor=none;fillColor=none;fontSize=18;strokeWidth=2;fontStyle=1" parent="1" vertex="1"><mxGeometry x="609" y="1124" width="96" height="32" as="geometry"/></mxCell><mxCell id="73" value="否" style="text;html=1;align=center;verticalAlign=middle;resizable=0;points=[];autosize=1;strokeColor=none;fillColor=none;fontSize=18;strokeWidth=2;fontStyle=1" parent="1" vertex="1"><mxGeometry x="271" y="390" width="48" height="32" as="geometry"/></mxCell><mxCell id="74" value="否" style="text;html=1;align=center;verticalAlign=middle;resizable=0;points=[];autosize=1;strokeColor=none;fillColor=none;fontSize=18;strokeWidth=2;fontStyle=1" parent="1" vertex="1"><mxGeometry x="684" y="473" width="48" height="32" as="geometry"/></mxCell><mxCell id="77" value="" style="endArrow=none;html=1;fontSize=18;entryX=0.5;entryY=1;entryDx=0;entryDy=0;strokeWidth=2;fontStyle=1" parent="1" target="65" edge="1"><mxGeometry width="50" height="50" relative="1" as="geometry"><mxPoint x="602" y="963" as="sourcePoint"/><mxPoint x="412" y="843" as="targetPoint"/></mxGeometry></mxCell><mxCell id="78" value="" style="endArrow=none;html=1;fontSize=18;exitX=0.5;exitY=1;exitDx=0;exitDy=0;entryX=0;entryY=0.5;entryDx=0;entryDy=0;strokeWidth=2;fontStyle=1" parent="1" source="67" edge="1"><mxGeometry width="50" height="50" relative="1" as="geometry"><mxPoint x="362" y="893" as="sourcePoint"/><mxPoint x="512" y="503" as="targetPoint"/><Array as="points"><mxPoint x="752" y="963"/><mxPoint x="482" y="963"/><mxPoint x="482" y="503"/></Array></mxGeometry></mxCell><mxCell id="83" value="" style="edgeStyle=none;html=1;fontSize=18;strokeWidth=2;fontStyle=1" parent="1" source="81" target="82" edge="1"><mxGeometry relative="1" as="geometry"/></mxCell><mxCell id="81" value="循环开始？" style="rhombus;whiteSpace=wrap;html=1;fontSize=18;fillColor=none;gradientColor=none;strokeWidth=2;fontStyle=1" parent="1" vertex="1"><mxGeometry x="920" y="533" width="160" height="70" as="geometry"/></mxCell><mxCell id="91" value="" style="edgeStyle=none;html=1;fontSize=18;strokeWidth=2;fontStyle=1" parent="1" source="82" target="90" edge="1"><mxGeometry relative="1" as="geometry"/></mxCell><mxCell id="82" value="读取sFIFO数据" style="whiteSpace=wrap;html=1;fontSize=18;fillColor=none;gradientColor=none;strokeWidth=2;fontStyle=1" parent="1" vertex="1"><mxGeometry x="940" y="640" width="120" height="60" as="geometry"/></mxCell><mxCell id="84" value="" style="endArrow=none;dashed=1;html=1;fontSize=18;exitX=1;exitY=0.5;exitDx=0;exitDy=0;entryX=0.5;entryY=0;entryDx=0;entryDy=0;strokeWidth=2;fontStyle=1" parent="1" edge="1"><mxGeometry width="50" height="50" relative="1" as="geometry"><mxPoint x="256" y="828.9999999999995" as="sourcePoint"/><mxPoint x="601.9999999999995" y="465" as="targetPoint"/><Array as="points"><mxPoint x="448" y="834"/><mxPoint x="448" y="442"/><mxPoint x="602" y="442"/></Array></mxGeometry></mxCell><mxCell id="85" value="是" style="text;html=1;align=center;verticalAlign=middle;resizable=0;points=[];autosize=1;strokeColor=none;fillColor=none;fontSize=18;strokeWidth=2;fontStyle=1" parent="1" vertex="1"><mxGeometry x="1006" y="597" width="48" height="32" as="geometry"/></mxCell><mxCell id="86" value="" style="endArrow=none;html=1;fontSize=18;strokeWidth=2;entryX=1;entryY=0.5;entryDx=0;entryDy=0;fontStyle=1" parent="1" target="81" edge="1"><mxGeometry width="50" height="50" relative="1" as="geometry"><mxPoint x="1000" y="1120" as="sourcePoint"/><mxPoint x="630" y="760" as="targetPoint"/><Array as="points"><mxPoint x="1160" y="1120"/><mxPoint x="1160" y="568"/></Array></mxGeometry></mxCell><mxCell id="87" value="" style="ellipse;whiteSpace=wrap;html=1;aspect=fixed;fontSize=18;fillColor=#000000;gradientColor=none;strokeWidth=2;fontStyle=1" parent="1" vertex="1"><mxGeometry x="975" y="1095" width="45" height="45" as="geometry"/></mxCell><mxCell id="93" value="" style="edgeStyle=none;html=1;fontSize=18;strokeWidth=2;fontStyle=1" parent="1" source="90" target="92" edge="1"><mxGeometry relative="1" as="geometry"/></mxCell><mxCell id="90" value="HIP解析数据" style="whiteSpace=wrap;html=1;fontSize=18;fillColor=none;gradientColor=none;strokeWidth=2;fontStyle=1" parent="1" vertex="1"><mxGeometry x="940" y="750" width="120" height="60" as="geometry"/></mxCell><mxCell id="92" value="将HIP负载数据上报消息队列" style="whiteSpace=wrap;html=1;fontSize=18;fillColor=none;gradientColor=none;strokeWidth=2;fontStyle=1" parent="1" vertex="1"><mxGeometry x="940" y="870" width="120" height="74" as="geometry"/></mxCell><mxCell id="94" value="" style="endArrow=none;html=1;fontSize=18;strokeWidth=2;exitX=0.5;exitY=1;exitDx=0;exitDy=0;entryX=0;entryY=0.5;entryDx=0;entryDy=0;fontStyle=1" parent="1" source="92" target="81" edge="1"><mxGeometry width="50" height="50" relative="1" as="geometry"><mxPoint x="580" y="800" as="sourcePoint"/><mxPoint x="630" y="750" as="targetPoint"/><Array as="points"><mxPoint x="1000" y="980"/><mxPoint x="880" y="980"/><mxPoint x="880" y="568"/></Array></mxGeometry></mxCell><mxCell id="95" value="线程关闭" style="text;html=1;align=center;verticalAlign=middle;resizable=0;points=[];autosize=1;strokeColor=none;fillColor=none;fontSize=18;strokeWidth=2;fontStyle=1" parent="1" vertex="1"><mxGeometry x="1097" y="1124" width="96" height="32" as="geometry"/></mxCell><mxCell id="96" value="&lt;font style=&quot;font-size: 21px&quot;&gt;&lt;b&gt;Linux网络编程 客户端思路&lt;/b&gt;&lt;/font&gt;" style="text;html=1;align=center;verticalAlign=middle;resizable=0;points=[];autosize=1;strokeColor=none;fillColor=none;fontSize=15;" parent="1" vertex="1"><mxGeometry x="1328" y="258" width="272" height="32" as="geometry"/></mxCell><mxCell id="97" value="" style="ellipse;whiteSpace=wrap;html=1;aspect=fixed;fontSize=18;strokeWidth=2;fillColor=#FFFFFF;gradientColor=none;fontStyle=1" parent="1" vertex="1"><mxGeometry x="292" y="124" width="52" height="52" as="geometry"/></mxCell><mxCell id="98" value="&lt;font style=&quot;font-size: 18px;&quot;&gt;开始&lt;/font&gt;" style="text;html=1;align=center;verticalAlign=middle;resizable=0;points=[];autosize=1;strokeColor=none;fillColor=none;fontSize=18;fontStyle=1" parent="1" vertex="1"><mxGeometry x="338" y="134" width="64" height="32" as="geometry"/></mxCell><mxCell id="99" value="" style="endArrow=none;html=1;fontSize=18;strokeWidth=2;fontStyle=1" parent="1" source="97" edge="1"><mxGeometry width="50" height="50" relative="1" as="geometry"><mxPoint x="528" y="514" as="sourcePoint"/><mxPoint x="200" y="288" as="targetPoint"/><Array as="points"><mxPoint x="320" y="256"/><mxPoint x="200" y="256"/></Array></mxGeometry></mxCell><mxCell id="105" value="" style="edgeStyle=none;html=1;fontSize=18;strokeWidth=2;fontStyle=1" parent="1" source="103" target="104" edge="1"><mxGeometry relative="1" as="geometry"/></mxCell><mxCell id="103" value="循环开始？" style="rhombus;whiteSpace=wrap;html=1;fontSize=18;strokeWidth=2;fillColor=none;gradientColor=none;fontStyle=1" parent="1" vertex="1"><mxGeometry x="1681" y="475" width="208" height="80" as="geometry"/></mxCell><mxCell id="107" value="" style="edgeStyle=none;html=1;fontSize=18;strokeWidth=2;fontStyle=1" parent="1" source="104" target="106" edge="1"><mxGeometry relative="1" as="geometry"/></mxCell><mxCell id="104" value="更新拷贝fds_set" style="rounded=0;whiteSpace=wrap;html=1;fontSize=18;fillColor=none;strokeWidth=2;gradientColor=none;glass=0;shadow=0;fontStyle=1" parent="1" vertex="1"><mxGeometry x="1725" y="603" width="120" height="60" as="geometry"/></mxCell><mxCell id="111" value="" style="edgeStyle=none;html=1;fontSize=18;strokeWidth=2;fontStyle=1" parent="1" source="106" target="110" edge="1"><mxGeometry relative="1" as="geometry"/></mxCell><mxCell id="106" value="select监听服务端fd读事件" style="whiteSpace=wrap;html=1;fontSize=18;fillColor=none;rounded=0;strokeWidth=2;gradientColor=none;glass=0;shadow=0;fontStyle=1" parent="1" vertex="1"><mxGeometry x="1725" y="712" width="120" height="60" as="geometry"/></mxCell><mxCell id="113" value="" style="edgeStyle=none;html=1;fontSize=18;strokeWidth=2;fontStyle=1" parent="1" source="110" target="112" edge="1"><mxGeometry relative="1" as="geometry"/></mxCell><mxCell id="110" value="fd可读？" style="rhombus;whiteSpace=wrap;html=1;fontSize=18;fillColor=none;rounded=0;strokeWidth=2;gradientColor=none;glass=0;shadow=0;fontStyle=1" parent="1" vertex="1"><mxGeometry x="1689" y="811" width="192" height="80" as="geometry"/></mxCell><mxCell id="112" value="读取数据，放入cFIFO" style="rounded=0;whiteSpace=wrap;html=1;fontSize=18;fillColor=none;strokeWidth=2;gradientColor=none;glass=0;shadow=0;fontStyle=1" parent="1" vertex="1"><mxGeometry x="1725" y="922" width="120" height="60" as="geometry"/></mxCell><mxCell id="114" value="" style="endArrow=none;html=1;fontSize=18;strokeWidth=2;exitX=0.5;exitY=1;exitDx=0;exitDy=0;entryX=0;entryY=0.5;entryDx=0;entryDy=0;fontStyle=1" parent="1" source="112" target="103" edge="1"><mxGeometry width="50" height="50" relative="1" as="geometry"><mxPoint x="1721" y="701" as="sourcePoint"/><mxPoint x="1771" y="651" as="targetPoint"/><Array as="points"><mxPoint x="1785" y="1019"/><mxPoint x="1785" y="1051"/><mxPoint x="1657" y="1051"/><mxPoint x="1657" y="515"/></Array></mxGeometry></mxCell><mxCell id="115" value="是" style="text;html=1;align=center;verticalAlign=middle;resizable=0;points=[];autosize=1;strokeColor=none;fillColor=none;fontSize=18;fontStyle=1" parent="1" vertex="1"><mxGeometry x="1781" y="885" width="48" height="32" as="geometry"/></mxCell><mxCell id="116" value="" style="endArrow=none;html=1;fontSize=18;strokeWidth=2;exitX=1;exitY=0.5;exitDx=0;exitDy=0;fontStyle=1" parent="1" source="110" edge="1"><mxGeometry width="50" height="50" relative="1" as="geometry"><mxPoint x="1721" y="701" as="sourcePoint"/><mxPoint x="1785" y="1051" as="targetPoint"/><Array as="points"><mxPoint x="1913" y="851"/><mxPoint x="1913" y="955"/><mxPoint x="1913" y="1051"/><mxPoint x="1881" y="1051"/></Array></mxGeometry></mxCell><mxCell id="118" value="否" style="text;html=1;align=center;verticalAlign=middle;resizable=0;points=[];autosize=1;strokeColor=none;fillColor=none;fontSize=18;fontStyle=1" parent="1" vertex="1"><mxGeometry x="1881" y="822" width="48" height="32" as="geometry"/></mxCell><mxCell id="119" value="是" style="text;html=1;align=center;verticalAlign=middle;resizable=0;points=[];autosize=1;strokeColor=none;fillColor=none;fontSize=18;fontStyle=1" parent="1" vertex="1"><mxGeometry x="1781" y="549" width="48" height="32" as="geometry"/></mxCell><mxCell id="120" value="" style="endArrow=none;html=1;fontSize=18;strokeWidth=2;entryX=1;entryY=0.5;entryDx=0;entryDy=0;fontStyle=1" parent="1" target="103" edge="1"><mxGeometry width="50" height="50" relative="1" as="geometry"><mxPoint x="1785" y="1115" as="sourcePoint"/><mxPoint x="1771" y="651" as="targetPoint"/><Array as="points"><mxPoint x="1945" y="1115"/><mxPoint x="1945" y="515"/></Array></mxGeometry></mxCell><mxCell id="121" value="" style="ellipse;whiteSpace=wrap;html=1;aspect=fixed;rounded=0;shadow=0;glass=0;fontSize=18;strokeWidth=2;fillColor=#000000;gradientColor=none;fontStyle=1" parent="1" vertex="1"><mxGeometry x="1754" y="1087" width="60" height="60" as="geometry"/></mxCell><mxCell id="122" value="线程结束" style="text;html=1;align=center;verticalAlign=middle;resizable=0;points=[];autosize=1;strokeColor=none;fillColor=none;fontSize=18;fontStyle=1" parent="1" vertex="1"><mxGeometry x="1801" y="1127" width="96" height="32" as="geometry"/></mxCell><mxCell id="132" value="" style="edgeStyle=none;html=1;fontSize=18;strokeWidth=2;entryX=0.5;entryY=0;entryDx=0;entryDy=0;fontStyle=1" parent="1" source="123" target="131" edge="1"><mxGeometry relative="1" as="geometry"><mxPoint x="2121" y="715" as="targetPoint"/></mxGeometry></mxCell><mxCell id="123" value="获取当前时间戳" style="whiteSpace=wrap;html=1;rounded=0;shadow=0;glass=0;fontSize=18;strokeWidth=2;fillColor=none;gradientColor=none;fontStyle=1" parent="1" vertex="1"><mxGeometry x="2075" y="587" width="120" height="60" as="geometry"/></mxCell><mxCell id="130" value="" style="edgeStyle=none;html=1;fontSize=18;strokeWidth=2;fontStyle=1" parent="1" source="124" target="123" edge="1"><mxGeometry relative="1" as="geometry"/></mxCell><mxCell id="124" value="循环开始？" style="rhombus;whiteSpace=wrap;html=1;rounded=0;shadow=0;glass=0;fontSize=18;strokeWidth=2;fillColor=none;gradientColor=none;fontStyle=1" parent="1" vertex="1"><mxGeometry x="2031" y="475" width="208" height="80" as="geometry"/></mxCell><mxCell id="128" value="" style="edgeStyle=none;html=1;fontSize=18;strokeWidth=2;entryX=0.5;entryY=0;entryDx=0;entryDy=0;fontStyle=1" parent="1" source="126" target="103" edge="1"><mxGeometry relative="1" as="geometry"/></mxCell><mxCell id="126" value="connect服务端" style="whiteSpace=wrap;html=1;fontSize=18;fillColor=none;strokeWidth=2;gradientColor=none;fontStyle=1" parent="1" vertex="1"><mxGeometry x="1725" y="385" width="120" height="60" as="geometry"/></mxCell><mxCell id="135" value="" style="edgeStyle=none;html=1;fontSize=18;strokeWidth=2;fontStyle=1" parent="1" source="131" target="134" edge="1"><mxGeometry relative="1" as="geometry"/></mxCell><mxCell id="131" value="逐个对比上一时间，超时？" style="rhombus;whiteSpace=wrap;html=1;fontSize=18;fillColor=none;rounded=0;shadow=0;glass=0;strokeWidth=2;gradientColor=none;fontStyle=1" parent="1" vertex="1"><mxGeometry x="2022" y="717" width="229" height="80" as="geometry"/></mxCell><mxCell id="134" value="重新连接服务端" style="whiteSpace=wrap;html=1;fontSize=18;fillColor=none;rounded=0;shadow=0;glass=0;strokeWidth=2;gradientColor=none;fontStyle=1" parent="1" vertex="1"><mxGeometry x="2076.5" y="842" width="120" height="60" as="geometry"/></mxCell><mxCell id="136" value="是" style="text;html=1;align=center;verticalAlign=middle;resizable=0;points=[];autosize=1;strokeColor=none;fillColor=none;fontSize=18;fontStyle=1" parent="1" vertex="1"><mxGeometry x="2137" y="797" width="48" height="32" as="geometry"/></mxCell><mxCell id="138" value="" style="endArrow=none;html=1;fontSize=18;strokeWidth=2;entryX=0.5;entryY=1;entryDx=0;entryDy=0;exitX=0;exitY=0.5;exitDx=0;exitDy=0;fontStyle=1" parent="1" source="124" target="134" edge="1"><mxGeometry width="50" height="50" relative="1" as="geometry"><mxPoint x="1993" y="507" as="sourcePoint"/><mxPoint x="1643" y="843" as="targetPoint"/><Array as="points"><mxPoint x="1993" y="515"/><mxPoint x="1993" y="1019"/><mxPoint x="2137" y="1019"/></Array></mxGeometry></mxCell><mxCell id="140" value="是" style="text;html=1;align=center;verticalAlign=middle;resizable=0;points=[];autosize=1;strokeColor=none;fillColor=none;fontSize=18;fontStyle=1" parent="1" vertex="1"><mxGeometry x="2133" y="549" width="48" height="32" as="geometry"/></mxCell><mxCell id="141" value="否" style="text;html=1;align=center;verticalAlign=middle;resizable=0;points=[];autosize=1;strokeColor=none;fillColor=none;fontSize=18;fontStyle=1" parent="1" vertex="1"><mxGeometry x="1877" y="485" width="48" height="32" as="geometry"/></mxCell><mxCell id="143" value="" style="ellipse;whiteSpace=wrap;html=1;aspect=fixed;rounded=0;shadow=0;glass=0;fontSize=18;strokeWidth=2;fillColor=#000000;gradientColor=none;fontStyle=1" parent="1" vertex="1"><mxGeometry x="2105" y="1087" width="60" height="60" as="geometry"/></mxCell><mxCell id="145" value="线程结束" style="text;html=1;align=center;verticalAlign=middle;resizable=0;points=[];autosize=1;strokeColor=none;fillColor=none;fontSize=18;fontStyle=1" parent="1" vertex="1"><mxGeometry x="2165" y="1127" width="96" height="32" as="geometry"/></mxCell><mxCell id="149" value="" style="edgeStyle=none;html=1;fontSize=18;strokeWidth=2;fontStyle=1" parent="1" source="147" target="148" edge="1"><mxGeometry relative="1" as="geometry"/></mxCell><mxCell id="147" value="循环开始？" style="rhombus;whiteSpace=wrap;html=1;rounded=0;shadow=0;glass=0;fontSize=18;strokeWidth=2;fillColor=none;gradientColor=none;fontStyle=1" parent="1" vertex="1"><mxGeometry x="2414" y="489" width="192" height="96" as="geometry"/></mxCell><mxCell id="151" value="" style="edgeStyle=none;html=1;fontSize=18;strokeWidth=2;fontStyle=1" parent="1" source="148" target="150" edge="1"><mxGeometry relative="1" as="geometry"/></mxCell><mxCell id="148" value="从cFIFO中读取负载数据" style="whiteSpace=wrap;html=1;fontSize=18;fillColor=none;rounded=0;shadow=0;glass=0;strokeWidth=2;gradientColor=none;fontStyle=1" parent="1" vertex="1"><mxGeometry x="2450" y="625" width="120" height="60" as="geometry"/></mxCell><mxCell id="150" value="上报消息队列" style="whiteSpace=wrap;html=1;fontSize=18;fillColor=none;rounded=0;shadow=0;glass=0;strokeWidth=2;gradientColor=none;fontStyle=1" parent="1" vertex="1"><mxGeometry x="2450" y="734" width="120" height="60" as="geometry"/></mxCell><mxCell id="152" value="是" style="text;html=1;align=center;verticalAlign=middle;resizable=0;points=[];autosize=1;strokeColor=none;fillColor=none;fontSize=18;fontStyle=1" parent="1" vertex="1"><mxGeometry x="2506" y="577" width="48" height="32" as="geometry"/></mxCell><mxCell id="153" value="" style="endArrow=none;html=1;fontSize=18;strokeWidth=2;entryX=0.5;entryY=1;entryDx=0;entryDy=0;exitX=0;exitY=0.5;exitDx=0;exitDy=0;fontStyle=1" parent="1" source="147" target="150" edge="1"><mxGeometry width="50" height="50" relative="1" as="geometry"><mxPoint x="2106" y="803" as="sourcePoint"/><mxPoint x="2156" y="753" as="targetPoint"/><Array as="points"><mxPoint x="2378" y="537"/><mxPoint x="2378" y="849"/><mxPoint x="2510" y="849"/></Array></mxGeometry></mxCell><mxCell id="154" value="" style="endArrow=none;html=1;fontSize=18;strokeWidth=2;entryX=1;entryY=0.5;entryDx=0;entryDy=0;fontStyle=1" parent="1" target="147" edge="1"><mxGeometry width="50" height="50" relative="1" as="geometry"><mxPoint x="2510" y="929" as="sourcePoint"/><mxPoint x="2156" y="753" as="targetPoint"/><Array as="points"><mxPoint x="2634" y="929"/><mxPoint x="2634" y="849"/><mxPoint x="2634" y="537"/></Array></mxGeometry></mxCell><mxCell id="155" value="否" style="text;html=1;align=center;verticalAlign=middle;resizable=0;points=[];autosize=1;strokeColor=none;fillColor=none;fontSize=18;fontStyle=1" parent="1" vertex="1"><mxGeometry x="2602" y="505" width="48" height="32" as="geometry"/></mxCell><mxCell id="156" value="" style="ellipse;whiteSpace=wrap;html=1;aspect=fixed;rounded=0;shadow=0;glass=0;fontSize=18;strokeWidth=2;fillColor=#000000;gradientColor=none;fontStyle=1" parent="1" vertex="1"><mxGeometry x="2480" y="901" width="60" height="60" as="geometry"/></mxCell><mxCell id="160" value="线程结束" style="text;html=1;align=center;verticalAlign=middle;resizable=0;points=[];autosize=1;strokeColor=none;fillColor=none;fontSize=18;fontStyle=1" parent="1" vertex="1"><mxGeometry x="2540" y="941" width="96" height="32" as="geometry"/></mxCell><mxCell id="161" value="否" style="text;html=1;align=center;verticalAlign=middle;resizable=0;points=[];autosize=1;strokeColor=none;fillColor=none;fontSize=18;fontStyle=1" parent="1" vertex="1"><mxGeometry x="2229" y="485" width="48" height="32" as="geometry"/></mxCell><mxCell id="162" value="否" style="text;html=1;align=center;verticalAlign=middle;resizable=0;points=[];autosize=1;strokeColor=none;fillColor=none;fontSize=18;fontStyle=1" parent="1" vertex="1"><mxGeometry x="1068" y="536" width="48" height="32" as="geometry"/></mxCell><mxCell id="163" value="" style="edgeStyle=none;html=1;fontSize=18;strokeWidth=2;fontStyle=1" parent="1" edge="1"><mxGeometry relative="1" as="geometry"><mxPoint x="200" y="350" as="sourcePoint"/><mxPoint x="200" y="390" as="targetPoint"/></mxGeometry></mxCell><mxCell id="165" value="" style="edgeStyle=none;html=1;fontSize=18;strokeWidth=2;fontStyle=1" parent="1" edge="1"><mxGeometry relative="1" as="geometry"><mxPoint x="200" y="450" as="sourcePoint"/><mxPoint x="200" y="510" as="targetPoint"/></mxGeometry></mxCell><mxCell id="167" value="" style="edgeStyle=none;html=1;fontSize=18;strokeWidth=2;fontStyle=1" parent="1" edge="1"><mxGeometry relative="1" as="geometry"><mxPoint x="200" y="570" as="sourcePoint"/><mxPoint x="200" y="624" as="targetPoint"/></mxGeometry></mxCell><mxCell id="169" value="" style="edgeStyle=none;html=1;fontSize=18;strokeWidth=2;fontStyle=1" parent="1" edge="1"><mxGeometry relative="1" as="geometry"><mxPoint x="200" y="736" as="sourcePoint"/><mxPoint x="200" y="790" as="targetPoint"/></mxGeometry></mxCell><mxCell id="174" value="开启一个线程读取fifo" style="shape=step;perimeter=stepPerimeter;whiteSpace=wrap;html=1;fixedSize=1;rounded=0;fontSize=18;strokeWidth=2;fontStyle=1" parent="1" vertex="1"><mxGeometry x="110" y="910" width="180" height="60" as="geometry"/></mxCell><mxCell id="175" value="" style="endArrow=none;dashed=1;html=1;strokeWidth=2;exitX=1;exitY=0.5;exitDx=0;exitDy=0;fontSize=18;fontStyle=1;entryX=0.492;entryY=-0.006;entryDx=0;entryDy=0;entryPerimeter=0;" parent="1" source="174" edge="1" target="81"><mxGeometry width="50" height="50" relative="1" as="geometry"><mxPoint x="310" y="700" as="sourcePoint"/><mxPoint x="1080" y="530" as="targetPoint"/><Array as="points"><mxPoint x="860" y="940"/><mxPoint x="860" y="500"/><mxPoint x="999" y="500"/></Array></mxGeometry></mxCell><mxCell id="176" value="" style="endArrow=none;html=1;entryX=1;entryY=0.5;entryDx=0;entryDy=0;exitX=0.5;exitY=1;exitDx=0;exitDy=0;fontSize=18;strokeWidth=2;fontStyle=1" parent="1" edge="1"><mxGeometry width="50" height="50" relative="1" as="geometry"><mxPoint x="-15" y="992" as="sourcePoint"/><mxPoint x="340" y="680" as="targetPoint"/><Array as="points"><mxPoint x="-15" y="1040"/><mxPoint x="400" y="1040"/><mxPoint x="400" y="680"/></Array></mxGeometry></mxCell><mxCell id="177" value="" style="endArrow=none;html=1;entryX=0.5;entryY=1;entryDx=0;entryDy=0;fontSize=18;strokeWidth=2;fontStyle=1" parent="1" target="174" edge="1"><mxGeometry width="50" height="50" relative="1" as="geometry"><mxPoint x="200" y="1040" as="sourcePoint"/><mxPoint x="360" y="650" as="targetPoint"/></mxGeometry></mxCell><mxCell id="181" value="是" style="text;html=1;align=center;verticalAlign=middle;resizable=0;points=[];autosize=1;strokeColor=none;fillColor=none;fontSize=18;strokeWidth=2;fontStyle=1" parent="1" vertex="1"><mxGeometry x="-19" y="864" width="48" height="32" as="geometry"/></mxCell><mxCell id="182" value="否" style="text;html=1;align=center;verticalAlign=middle;resizable=0;points=[];autosize=1;strokeColor=none;fillColor=none;fontSize=18;strokeWidth=2;fontStyle=1" parent="1" vertex="1"><mxGeometry x="-154" y="914" width="48" height="32" as="geometry"/></mxCell><mxCell id="184" value="" style="endArrow=none;html=1;exitX=0.5;exitY=0;exitDx=0;exitDy=0;fontSize=18;strokeWidth=2;fontStyle=1" parent="1" edge="1"><mxGeometry width="50" height="50" relative="1" as="geometry"><mxPoint x="-15" y="780" as="sourcePoint"/><mxPoint x="-15" y="420" as="targetPoint"/></mxGeometry></mxCell><mxCell id="185" value="是" style="text;html=1;align=center;verticalAlign=middle;resizable=0;points=[];autosize=1;strokeColor=none;fillColor=none;fontSize=18;strokeWidth=2;fontStyle=1" parent="1" vertex="1"><mxGeometry x="201" y="464" width="48" height="32" as="geometry"/></mxCell><mxCell id="190" value="线程三，处理客户端发来的数据，并将负载数据，报给消息队列，准备转传客户端" style="text;html=1;strokeColor=none;fillColor=none;align=center;verticalAlign=middle;whiteSpace=wrap;rounded=0;fontSize=18;strokeWidth=2;fontStyle=1" parent="1" vertex="1"><mxGeometry x="880" y="395" width="180" height="55" as="geometry"/></mxCell><mxCell id="191" value="" style="edgeStyle=none;html=1;fontSize=18;strokeWidth=2;fontStyle=1" parent="1" target="195" edge="1"><mxGeometry relative="1" as="geometry"><mxPoint x="602" y="543" as="sourcePoint"/></mxGeometry></mxCell><mxCell id="192" style="edgeStyle=none;html=1;exitX=1;exitY=0.5;exitDx=0;exitDy=0;fontSize=18;strokeWidth=2;fontStyle=1" parent="1" edge="1"><mxGeometry relative="1" as="geometry"><mxPoint x="610" y="1120" as="targetPoint"/><mxPoint x="670" y="503" as="sourcePoint"/><Array as="points"><mxPoint x="830" y="503"/><mxPoint x="830" y="1120"/></Array></mxGeometry></mxCell><mxCell id="193" value="&lt;font style=&quot;font-size: 18px;&quot;&gt;循环开始？&lt;/font&gt;" style="rhombus;whiteSpace=wrap;html=1;fontSize=18;strokeWidth=2;fontStyle=1" parent="1" vertex="1"><mxGeometry x="512" y="463" width="180" height="80" as="geometry"/></mxCell><mxCell id="194" value="" style="edgeStyle=none;html=1;fontSize=18;strokeWidth=2;fontStyle=1" parent="1" source="195" target="198" edge="1"><mxGeometry relative="1" as="geometry"/></mxCell><mxCell id="195" value="&lt;font style=&quot;font-size: 18px;&quot;&gt;获取当前的时间戳&lt;/font&gt;" style="whiteSpace=wrap;html=1;fontSize=18;strokeWidth=2;fontStyle=1" parent="1" vertex="1"><mxGeometry x="542" y="593" width="120" height="60" as="geometry"/></mxCell><mxCell id="197" value="" style="edgeStyle=none;html=1;fontSize=18;strokeWidth=2;fontStyle=1" parent="1" source="198" target="205" edge="1"><mxGeometry relative="1" as="geometry"/></mxCell><mxCell id="198" value="逐个对比上一时间，超时？" style="rhombus;whiteSpace=wrap;html=1;fontSize=18;strokeWidth=2;fontStyle=1" parent="1" vertex="1"><mxGeometry x="502" y="688" width="200" height="112" as="geometry"/></mxCell><mxCell id="199" value="" style="endArrow=none;html=1;fontSize=18;entryX=1;entryY=0.5;entryDx=0;entryDy=0;strokeWidth=2;fontStyle=1" parent="1" edge="1"><mxGeometry width="50" height="50" relative="1" as="geometry"><mxPoint x="200" y="1122" as="sourcePoint"/><mxPoint x="280" y="420" as="targetPoint"/><Array as="points"><mxPoint x="420" y="1120"/><mxPoint x="420" y="740"/><mxPoint x="420" y="420"/></Array></mxGeometry></mxCell><mxCell id="200" value="" style="ellipse;whiteSpace=wrap;html=1;aspect=fixed;fontSize=18;fillColor=#000000;strokeWidth=2;fontStyle=1" parent="1" vertex="1"><mxGeometry x="180" y="1100" width="40" height="40" as="geometry"/></mxCell><mxCell id="202" value="" style="endArrow=none;html=1;fontSize=18;entryX=1;entryY=0.5;entryDx=0;entryDy=0;exitX=0.5;exitY=0;exitDx=0;exitDy=0;strokeWidth=2;fontStyle=1" parent="1" source="206" target="198" edge="1"><mxGeometry width="50" height="50" relative="1" as="geometry"><mxPoint x="742" y="833" as="sourcePoint"/><mxPoint x="412" y="873" as="targetPoint"/><Array as="points"><mxPoint x="752" y="743"/></Array></mxGeometry></mxCell><mxCell id="203" value="" style="endArrow=none;html=1;fontSize=18;entryX=0.5;entryY=1;entryDx=0;entryDy=0;strokeWidth=2;fontStyle=1" parent="1" target="198" edge="1"><mxGeometry width="50" height="50" relative="1" as="geometry"><mxPoint x="602" y="853" as="sourcePoint"/><mxPoint x="412" y="873" as="targetPoint"/></mxGeometry></mxCell><mxCell id="204" value="是" style="text;html=1;align=center;verticalAlign=middle;resizable=0;points=[];autosize=1;strokeColor=none;fillColor=none;fontSize=18;strokeWidth=2;fontStyle=1" parent="1" vertex="1"><mxGeometry x="598" y="797" width="48" height="32" as="geometry"/></mxCell><mxCell id="205" value="用户表中删除客户端" style="whiteSpace=wrap;html=1;fontSize=18;strokeWidth=2;fontStyle=1" parent="1" vertex="1"><mxGeometry x="542" y="833" width="120" height="60" as="geometry"/></mxCell><mxCell id="206" value="发送正常心跳包" style="rounded=0;whiteSpace=wrap;html=1;fontSize=18;strokeWidth=2;fontStyle=1" parent="1" vertex="1"><mxGeometry x="692" y="833" width="120" height="60" as="geometry"/></mxCell><mxCell id="207" value="否" style="text;html=1;align=center;verticalAlign=middle;resizable=0;points=[];autosize=1;strokeColor=none;fillColor=none;fontSize=18;strokeWidth=2;fontStyle=1" parent="1" vertex="1"><mxGeometry x="753" y="797" width="48" height="32" as="geometry"/></mxCell><mxCell id="208" value="" style="ellipse;whiteSpace=wrap;html=1;aspect=fixed;fontSize=18;fillColor=#000000;strokeWidth=2;fontStyle=1" parent="1" vertex="1"><mxGeometry x="579.25" y="1097.25" width="42.75" height="42.75" as="geometry"/></mxCell><mxCell id="210" value="否" style="text;html=1;align=center;verticalAlign=middle;resizable=0;points=[];autosize=1;strokeColor=none;fillColor=none;fontSize=18;strokeWidth=2;fontStyle=1" parent="1" vertex="1"><mxGeometry x="271" y="390" width="48" height="32" as="geometry"/></mxCell><mxCell id="211" value="否" style="text;html=1;align=center;verticalAlign=middle;resizable=0;points=[];autosize=1;strokeColor=none;fillColor=none;fontSize=18;strokeWidth=2;fontStyle=1" parent="1" vertex="1"><mxGeometry x="684" y="473" width="48" height="32" as="geometry"/></mxCell><mxCell id="212" value="" style="endArrow=none;html=1;fontSize=18;entryX=0.5;entryY=1;entryDx=0;entryDy=0;strokeWidth=2;fontStyle=1" parent="1" target="205" edge="1"><mxGeometry width="50" height="50" relative="1" as="geometry"><mxPoint x="602" y="963" as="sourcePoint"/><mxPoint x="412" y="843" as="targetPoint"/></mxGeometry></mxCell><mxCell id="213" value="" style="endArrow=none;html=1;fontSize=18;exitX=0.5;exitY=1;exitDx=0;exitDy=0;entryX=0;entryY=0.5;entryDx=0;entryDy=0;strokeWidth=2;fontStyle=1" parent="1" source="206" edge="1"><mxGeometry width="50" height="50" relative="1" as="geometry"><mxPoint x="362" y="893" as="sourcePoint"/><mxPoint x="512" y="503" as="targetPoint"/><Array as="points"><mxPoint x="752" y="963"/><mxPoint x="482" y="963"/><mxPoint x="482" y="503"/></Array></mxGeometry></mxCell><mxCell id="214" value="" style="edgeStyle=none;html=1;fontSize=18;strokeWidth=2;fontStyle=1" parent="1" edge="1"><mxGeometry relative="1" as="geometry"><mxPoint x="1000" y="602.9999999999998" as="sourcePoint"/><mxPoint x="1000" y="640" as="targetPoint"/></mxGeometry></mxCell><mxCell id="216" value="" style="edgeStyle=none;html=1;fontSize=18;strokeWidth=2;fontStyle=1" parent="1" edge="1"><mxGeometry relative="1" as="geometry"><mxPoint x="1000" y="700" as="sourcePoint"/><mxPoint x="1000" y="750" as="targetPoint"/></mxGeometry></mxCell><mxCell id="219" value="是" style="text;html=1;align=center;verticalAlign=middle;resizable=0;points=[];autosize=1;strokeColor=none;fillColor=none;fontSize=18;strokeWidth=2;fontStyle=1" parent="1" vertex="1"><mxGeometry x="1006" y="597" width="48" height="32" as="geometry"/></mxCell><mxCell id="220" value="" style="endArrow=none;html=1;fontSize=18;strokeWidth=2;entryX=1;entryY=0.5;entryDx=0;entryDy=0;fontStyle=1" parent="1" edge="1"><mxGeometry width="50" height="50" relative="1" as="geometry"><mxPoint x="1000" y="1120" as="sourcePoint"/><mxPoint x="1080" y="567.9999999999998" as="targetPoint"/><Array as="points"><mxPoint x="1160" y="1120"/><mxPoint x="1160" y="568"/></Array></mxGeometry></mxCell><mxCell id="221" value="" style="ellipse;whiteSpace=wrap;html=1;aspect=fixed;fontSize=18;fillColor=#000000;gradientColor=none;strokeWidth=2;fontStyle=1" parent="1" vertex="1"><mxGeometry x="975" y="1095" width="45" height="45" as="geometry"/></mxCell><mxCell id="222" value="" style="edgeStyle=none;html=1;fontSize=18;strokeWidth=2;fontStyle=1" parent="1" edge="1"><mxGeometry relative="1" as="geometry"><mxPoint x="1000" y="810" as="sourcePoint"/><mxPoint x="1000" y="870" as="targetPoint"/></mxGeometry></mxCell><mxCell id="225" value="" style="endArrow=none;html=1;fontSize=18;strokeWidth=2;exitX=0.5;exitY=1;exitDx=0;exitDy=0;entryX=0;entryY=0.5;entryDx=0;entryDy=0;fontStyle=1" parent="1" edge="1"><mxGeometry width="50" height="50" relative="1" as="geometry"><mxPoint x="1000" y="930" as="sourcePoint"/><mxPoint x="920" y="567.9999999999998" as="targetPoint"/><Array as="points"><mxPoint x="1000" y="980"/><mxPoint x="880" y="980"/><mxPoint x="880" y="568"/></Array></mxGeometry></mxCell><mxCell id="230" value="" style="endArrow=none;html=1;fontSize=18;strokeWidth=2;fontStyle=1" parent="1" edge="1"><mxGeometry width="50" height="50" relative="1" as="geometry"><mxPoint x="318.3095018780364" y="175.99815775504976" as="sourcePoint"/><mxPoint x="200" y="288" as="targetPoint"/><Array as="points"><mxPoint x="320" y="256"/><mxPoint x="200" y="256"/></Array></mxGeometry></mxCell><mxCell id="232" value="" style="edgeStyle=none;html=1;fontSize=18;strokeWidth=2;fontStyle=1" parent="1" edge="1"><mxGeometry relative="1" as="geometry"><mxPoint x="1785" y="555" as="sourcePoint"/><mxPoint x="1785" y="603.0000000000002" as="targetPoint"/></mxGeometry></mxCell><mxCell id="234" value="" style="edgeStyle=none;html=1;fontSize=18;strokeWidth=2;fontStyle=1" parent="1" edge="1"><mxGeometry relative="1" as="geometry"><mxPoint x="1785" y="663.0000000000002" as="sourcePoint"/><mxPoint x="1785" y="712" as="targetPoint"/></mxGeometry></mxCell><mxCell id="236" value="" style="edgeStyle=none;html=1;fontSize=18;strokeWidth=2;fontStyle=1" parent="1" edge="1"><mxGeometry relative="1" as="geometry"><mxPoint x="1785" y="772" as="sourcePoint"/><mxPoint x="1785" y="811" as="targetPoint"/></mxGeometry></mxCell><mxCell id="238" value="" style="edgeStyle=none;html=1;fontSize=18;strokeWidth=2;fontStyle=1" parent="1" edge="1"><mxGeometry relative="1" as="geometry"><mxPoint x="1785" y="891" as="sourcePoint"/><mxPoint x="1785" y="922" as="targetPoint"/></mxGeometry></mxCell><mxCell id="241" value="" style="endArrow=none;html=1;fontSize=18;strokeWidth=2;exitX=0.5;exitY=1;exitDx=0;exitDy=0;entryX=0;entryY=0.5;entryDx=0;entryDy=0;fontStyle=1" parent="1" edge="1"><mxGeometry width="50" height="50" relative="1" as="geometry"><mxPoint x="1785" y="982" as="sourcePoint"/><mxPoint x="1681.0000000000005" y="515" as="targetPoint"/><Array as="points"><mxPoint x="1785" y="1019"/><mxPoint x="1785" y="1051"/><mxPoint x="1657" y="1051"/><mxPoint x="1657" y="515"/></Array></mxGeometry></mxCell><mxCell id="242" value="是" style="text;html=1;align=center;verticalAlign=middle;resizable=0;points=[];autosize=1;strokeColor=none;fillColor=none;fontSize=18;fontStyle=1" parent="1" vertex="1"><mxGeometry x="1781" y="885" width="48" height="32" as="geometry"/></mxCell><mxCell id="243" value="" style="endArrow=none;html=1;fontSize=18;strokeWidth=2;exitX=1;exitY=0.5;exitDx=0;exitDy=0;fontStyle=1" parent="1" edge="1"><mxGeometry width="50" height="50" relative="1" as="geometry"><mxPoint x="1880.9999999999995" y="851" as="sourcePoint"/><mxPoint x="1785" y="1051" as="targetPoint"/><Array as="points"><mxPoint x="1913" y="851"/><mxPoint x="1913" y="955"/><mxPoint x="1913" y="1051"/><mxPoint x="1881" y="1051"/></Array></mxGeometry></mxCell><mxCell id="244" value="否" style="text;html=1;align=center;verticalAlign=middle;resizable=0;points=[];autosize=1;strokeColor=none;fillColor=none;fontSize=18;fontStyle=1" parent="1" vertex="1"><mxGeometry x="1881" y="822" width="48" height="32" as="geometry"/></mxCell><mxCell id="245" value="是" style="text;html=1;align=center;verticalAlign=middle;resizable=0;points=[];autosize=1;strokeColor=none;fillColor=none;fontSize=18;fontStyle=1" parent="1" vertex="1"><mxGeometry x="1781" y="549" width="48" height="32" as="geometry"/></mxCell><mxCell id="246" value="" style="endArrow=none;html=1;fontSize=18;strokeWidth=2;entryX=1;entryY=0.5;entryDx=0;entryDy=0;fontStyle=1" parent="1" edge="1"><mxGeometry width="50" height="50" relative="1" as="geometry"><mxPoint x="1785" y="1115" as="sourcePoint"/><mxPoint x="1889.0000000000005" y="515" as="targetPoint"/><Array as="points"><mxPoint x="1945" y="1115"/><mxPoint x="1945" y="515"/></Array></mxGeometry></mxCell><mxCell id="247" value="" style="ellipse;whiteSpace=wrap;html=1;aspect=fixed;rounded=0;shadow=0;glass=0;fontSize=18;strokeWidth=2;fillColor=#000000;gradientColor=none;fontStyle=1" parent="1" vertex="1"><mxGeometry x="1754" y="1087" width="60" height="60" as="geometry"/></mxCell><mxCell id="249" value="" style="edgeStyle=none;html=1;fontSize=18;strokeWidth=2;entryX=0.5;entryY=0;entryDx=0;entryDy=0;fontStyle=1" parent="1" edge="1"><mxGeometry relative="1" as="geometry"><mxPoint x="2135.45" y="647" as="sourcePoint"/><mxPoint x="2136.5" y="717" as="targetPoint"/></mxGeometry></mxCell><mxCell id="251" value="" style="edgeStyle=none;html=1;fontSize=18;strokeWidth=2;fontStyle=1" parent="1" edge="1"><mxGeometry relative="1" as="geometry"><mxPoint x="2135" y="555" as="sourcePoint"/><mxPoint x="2135" y="587" as="targetPoint"/></mxGeometry></mxCell><mxCell id="253" value="" style="edgeStyle=none;html=1;fontSize=18;strokeWidth=2;entryX=0.5;entryY=0;entryDx=0;entryDy=0;fontStyle=1" parent="1" edge="1"><mxGeometry relative="1" as="geometry"><mxPoint x="1785" y="445" as="sourcePoint"/><mxPoint x="1785" y="475" as="targetPoint"/></mxGeometry></mxCell><mxCell id="255" value="线程二，管理心跳" style="text;html=1;align=center;verticalAlign=middle;resizable=0;points=[];autosize=1;strokeColor=none;fillColor=none;fontSize=18;fontStyle=1" parent="1" vertex="1"><mxGeometry x="2047" y="418" width="176" height="32" as="geometry"/></mxCell><mxCell id="256" value="" style="edgeStyle=none;html=1;fontSize=18;strokeWidth=2;fontStyle=1" parent="1" edge="1"><mxGeometry relative="1" as="geometry"><mxPoint x="2136.5" y="797" as="sourcePoint"/><mxPoint x="2136.5" y="842" as="targetPoint"/></mxGeometry></mxCell><mxCell id="259" value="是" style="text;html=1;align=center;verticalAlign=middle;resizable=0;points=[];autosize=1;strokeColor=none;fillColor=none;fontSize=18;fontStyle=1" parent="1" vertex="1"><mxGeometry x="2137" y="797" width="48" height="32" as="geometry"/></mxCell><mxCell id="261" value="" style="endArrow=none;html=1;fontSize=18;strokeWidth=2;entryX=0.5;entryY=1;entryDx=0;entryDy=0;exitX=0;exitY=0.5;exitDx=0;exitDy=0;fontStyle=1" parent="1" edge="1"><mxGeometry width="50" height="50" relative="1" as="geometry"><mxPoint x="2031" y="515" as="sourcePoint"/><mxPoint x="2136.5" y="902" as="targetPoint"/><Array as="points"><mxPoint x="1993" y="515"/><mxPoint x="1993" y="1019"/><mxPoint x="2137" y="1019"/></Array></mxGeometry></mxCell><mxCell id="262" value="否" style="text;html=1;align=center;verticalAlign=middle;resizable=0;points=[];autosize=1;strokeColor=none;fillColor=none;fontSize=18;fontStyle=1" parent="1" vertex="1"><mxGeometry x="2229" y="695" width="48" height="32" as="geometry"/></mxCell><mxCell id="263" value="是" style="text;html=1;align=center;verticalAlign=middle;resizable=0;points=[];autosize=1;strokeColor=none;fillColor=none;fontSize=18;fontStyle=1" parent="1" vertex="1"><mxGeometry x="2133" y="549" width="48" height="32" as="geometry"/></mxCell><mxCell id="264" value="否" style="text;html=1;align=center;verticalAlign=middle;resizable=0;points=[];autosize=1;strokeColor=none;fillColor=none;fontSize=18;fontStyle=1" parent="1" vertex="1"><mxGeometry x="1877" y="485" width="48" height="32" as="geometry"/></mxCell><mxCell id="265" value="" style="endArrow=none;html=1;fontSize=18;strokeWidth=2;entryX=1;entryY=0.5;entryDx=0;entryDy=0;fontStyle=1" parent="1" edge="1"><mxGeometry width="50" height="50" relative="1" as="geometry"><mxPoint x="2135" y="1115" as="sourcePoint"/><mxPoint x="2239" y="515" as="targetPoint"/><Array as="points"><mxPoint x="2352" y="1115"/><mxPoint x="2352" y="515"/></Array></mxGeometry></mxCell><mxCell id="266" value="" style="ellipse;whiteSpace=wrap;html=1;aspect=fixed;rounded=0;shadow=0;glass=0;fontSize=18;strokeWidth=2;fillColor=#000000;gradientColor=none;fontStyle=1" parent="1" vertex="1"><mxGeometry x="2105" y="1087" width="60" height="60" as="geometry"/></mxCell><mxCell id="268" value="线程三，处理服务端发来的数据，" style="text;html=1;align=center;verticalAlign=middle;resizable=0;points=[];autosize=1;strokeColor=none;fillColor=none;fontSize=18;fontStyle=1" parent="1" vertex="1"><mxGeometry x="2384" y="445" width="288" height="32" as="geometry"/></mxCell><mxCell id="269" value="" style="edgeStyle=none;html=1;fontSize=18;strokeWidth=2;fontStyle=1" parent="1" edge="1"><mxGeometry relative="1" as="geometry"><mxPoint x="2510" y="585" as="sourcePoint"/><mxPoint x="2510" y="625" as="targetPoint"/></mxGeometry></mxCell><mxCell id="271" value="" style="edgeStyle=none;html=1;fontSize=18;strokeWidth=2;fontStyle=1" parent="1" edge="1"><mxGeometry relative="1" as="geometry"><mxPoint x="2510" y="685" as="sourcePoint"/><mxPoint x="2510" y="734" as="targetPoint"/></mxGeometry></mxCell><mxCell id="274" value="是" style="text;html=1;align=center;verticalAlign=middle;resizable=0;points=[];autosize=1;strokeColor=none;fillColor=none;fontSize=18;fontStyle=1" parent="1" vertex="1"><mxGeometry x="2506" y="577" width="48" height="32" as="geometry"/></mxCell><mxCell id="275" value="" style="endArrow=none;html=1;fontSize=18;strokeWidth=2;entryX=0.5;entryY=1;entryDx=0;entryDy=0;exitX=0;exitY=0.5;exitDx=0;exitDy=0;fontStyle=1" parent="1" edge="1"><mxGeometry width="50" height="50" relative="1" as="geometry"><mxPoint x="2414" y="537.0000000000002" as="sourcePoint"/><mxPoint x="2510" y="794" as="targetPoint"/><Array as="points"><mxPoint x="2378" y="537"/><mxPoint x="2378" y="849"/><mxPoint x="2510" y="849"/></Array></mxGeometry></mxCell><mxCell id="276" value="" style="endArrow=none;html=1;fontSize=18;strokeWidth=2;entryX=1;entryY=0.5;entryDx=0;entryDy=0;fontStyle=1" parent="1" edge="1"><mxGeometry width="50" height="50" relative="1" as="geometry"><mxPoint x="2510" y="929" as="sourcePoint"/><mxPoint x="2606" y="537.0000000000002" as="targetPoint"/><Array as="points"><mxPoint x="2634" y="929"/><mxPoint x="2634" y="849"/><mxPoint x="2634" y="537"/></Array></mxGeometry></mxCell><mxCell id="277" value="否" style="text;html=1;align=center;verticalAlign=middle;resizable=0;points=[];autosize=1;strokeColor=none;fillColor=none;fontSize=18;fontStyle=1" parent="1" vertex="1"><mxGeometry x="2602" y="505" width="48" height="32" as="geometry"/></mxCell><mxCell id="278" value="" style="ellipse;whiteSpace=wrap;html=1;aspect=fixed;rounded=0;shadow=0;glass=0;fontSize=18;strokeWidth=2;fillColor=#000000;gradientColor=none;fontStyle=1" parent="1" vertex="1"><mxGeometry x="2480" y="901" width="60" height="60" as="geometry"/></mxCell><mxCell id="279" value="线程结束" style="text;html=1;align=center;verticalAlign=middle;resizable=0;points=[];autosize=1;strokeColor=none;fillColor=none;fontSize=18;fontStyle=1" parent="1" vertex="1"><mxGeometry x="2540" y="941" width="96" height="32" as="geometry"/></mxCell><mxCell id="280" value="否" style="text;html=1;align=center;verticalAlign=middle;resizable=0;points=[];autosize=1;strokeColor=none;fillColor=none;fontSize=18;fontStyle=1" parent="1" vertex="1"><mxGeometry x="2229" y="485" width="48" height="32" as="geometry"/></mxCell><mxCell id="281" value="否" style="text;html=1;align=center;verticalAlign=middle;resizable=0;points=[];autosize=1;strokeColor=none;fillColor=none;fontSize=18;fontStyle=1" parent="1" vertex="1"><mxGeometry x="1068" y="536" width="48" height="32" as="geometry"/></mxCell><mxCell id="287" value="&lt;span style=&quot;font-size: 18px;&quot;&gt;线程零，客户端接收APP分发数据，HIP封装后发送给服务端&lt;/span&gt;" style="text;html=1;strokeColor=none;fillColor=none;align=center;verticalAlign=middle;whiteSpace=wrap;rounded=0;shadow=0;glass=0;fontSize=18;fontStyle=1" parent="1" vertex="1"><mxGeometry x="1356" y="334" width="224" height="88" as="geometry"/></mxCell><mxCell id="290" value="" style="edgeStyle=none;html=1;fontSize=18;strokeWidth=2;fontStyle=1" parent="1" source="288" target="289" edge="1"><mxGeometry relative="1" as="geometry"/></mxCell><mxCell id="288" value="循环开始？" style="rhombus;whiteSpace=wrap;html=1;rounded=0;shadow=0;glass=0;fontSize=18;strokeWidth=2;fillColor=none;gradientColor=none;fontStyle=1" parent="1" vertex="1"><mxGeometry x="1352" y="463" width="248" height="96" as="geometry"/></mxCell><mxCell id="292" value="" style="edgeStyle=none;html=1;fontSize=18;strokeWidth=2;fontStyle=1" parent="1" source="289" target="291" edge="1"><mxGeometry relative="1" as="geometry"/></mxCell><mxCell id="289" value="接收APP分发数据到r_fifo" style="whiteSpace=wrap;html=1;fontSize=18;fillColor=none;rounded=0;shadow=0;glass=0;strokeWidth=2;gradientColor=none;fontStyle=1" parent="1" vertex="1"><mxGeometry x="1412" y="597" width="120" height="60" as="geometry"/></mxCell><mxCell id="294" value="" style="edgeStyle=none;html=1;fontSize=18;strokeWidth=2;fontStyle=1" parent="1" source="291" target="293" edge="1"><mxGeometry relative="1" as="geometry"/></mxCell><mxCell id="291" value="HIP打包" style="whiteSpace=wrap;html=1;fontSize=18;fillColor=none;rounded=0;shadow=0;glass=0;strokeWidth=2;gradientColor=none;fontStyle=1" parent="1" vertex="1"><mxGeometry x="1412" y="713" width="120" height="60" as="geometry"/></mxCell><mxCell id="293" value="发送给服务端" style="whiteSpace=wrap;html=1;fontSize=18;fillColor=none;rounded=0;shadow=0;glass=0;strokeWidth=2;gradientColor=none;fontStyle=1" parent="1" vertex="1"><mxGeometry x="1412" y="842" width="120" height="60" as="geometry"/></mxCell><mxCell id="295" value="" style="endArrow=none;html=1;fontSize=18;strokeWidth=2;exitX=-0.019;exitY=0.51;exitDx=0;exitDy=0;exitPerimeter=0;fontStyle=1;entryX=0.488;entryY=0.989;entryDx=0;entryDy=0;entryPerimeter=0;" parent="1" source="288" target="293" edge="1"><mxGeometry width="50" height="50" relative="1" as="geometry"><mxPoint x="1584" y="562" as="sourcePoint"/><mxPoint x="1469" y="944" as="targetPoint"/><Array as="points"><mxPoint x="1312" y="512"/><mxPoint x="1312" y="960"/><mxPoint x="1471" y="960"/></Array></mxGeometry></mxCell><mxCell id="296" value="是" style="text;html=1;align=center;verticalAlign=middle;resizable=0;points=[];autosize=1;strokeColor=none;fillColor=none;fontSize=18;fontStyle=1" parent="1" vertex="1"><mxGeometry x="1472" y="555" width="48" height="32" as="geometry"/></mxCell><mxCell id="297" value="" style="endArrow=none;html=1;fontSize=18;strokeWidth=2;entryX=1.009;entryY=0.513;entryDx=0;entryDy=0;entryPerimeter=0;startArrow=none;fontStyle=1" parent="1" target="288" edge="1"><mxGeometry width="50" height="50" relative="1" as="geometry"><mxPoint x="1472" y="1117.54" as="sourcePoint"/><mxPoint x="1537.4800000000005" y="555.0039999999999" as="targetPoint"/><Array as="points"><mxPoint x="1602" y="1118"/></Array></mxGeometry></mxCell><mxCell id="298" value="否" style="text;html=1;align=center;verticalAlign=middle;resizable=0;points=[];autosize=1;strokeColor=none;fillColor=none;fontSize=18;fontStyle=1" parent="1" vertex="1"><mxGeometry x="1580" y="474" width="48" height="32" as="geometry"/></mxCell><mxCell id="299" value="" style="ellipse;whiteSpace=wrap;html=1;aspect=fixed;rounded=0;shadow=0;glass=0;fontSize=18;strokeWidth=2;fillColor=#000000;gradientColor=none;fontStyle=1" parent="1" vertex="1"><mxGeometry x="1442" y="1085" width="60" height="60" as="geometry"/></mxCell><mxCell id="304" value="线程结束" style="text;html=1;align=center;verticalAlign=middle;resizable=0;points=[];autosize=1;strokeColor=none;fillColor=none;fontSize=18;fontStyle=1" parent="1" vertex="1"><mxGeometry x="1490" y="1126" width="96" height="32" as="geometry"/></mxCell><mxCell id="305" value="" style="endArrow=none;html=1;fontSize=18;strokeWidth=4;fontStyle=1" parent="1" edge="1"><mxGeometry width="50" height="50" relative="1" as="geometry"><mxPoint x="1280" y="1296" as="sourcePoint"/><mxPoint x="1280" as="targetPoint"/></mxGeometry></mxCell><mxCell id="306" value="" style="endArrow=none;dashed=1;html=1;fontSize=18;strokeWidth=2;entryX=-0.01;entryY=0.508;entryDx=0;entryDy=0;entryPerimeter=0;exitX=0.481;exitY=0;exitDx=0;exitDy=0;exitPerimeter=0;fontStyle=1" parent="1" source="288" target="126" edge="1"><mxGeometry width="50" height="50" relative="1" as="geometry"><mxPoint x="1856" y="690" as="sourcePoint"/><mxPoint x="1906" y="640" as="targetPoint"/><Array as="points"><mxPoint x="1471" y="432"/><mxPoint x="1648" y="432"/></Array></mxGeometry></mxCell><mxCell id="308" value="&lt;span style=&quot;font-size: 18px ; font-weight: 700&quot;&gt;线程一，客户端监听服务端数据，留存cFIFO&lt;/span&gt;" style="text;html=1;strokeColor=none;fillColor=none;align=center;verticalAlign=middle;whiteSpace=wrap;rounded=0;" parent="1" vertex="1"><mxGeometry x="1829.5" y="350" width="151" height="14" as="geometry"/></mxCell><mxCell id="309" value="" style="endArrow=none;html=1;exitX=0.483;exitY=-0.033;exitDx=0;exitDy=0;exitPerimeter=0;" parent="1" source="126" edge="1"><mxGeometry width="50" height="50" relative="1" as="geometry"><mxPoint x="1584" y="338" as="sourcePoint"/><mxPoint x="1696" y="336" as="targetPoint"/><Array as="points"><mxPoint x="1783" y="336"/></Array></mxGeometry></mxCell><mxCell id="310" value="" style="ellipse;whiteSpace=wrap;html=1;aspect=fixed;fillColor=#FFFFFF;" parent="1" vertex="1"><mxGeometry x="1677" y="316" width="48" height="48" as="geometry"/></mxCell><mxCell id="311" value="&lt;font style=&quot;font-size: 17px&quot;&gt;&lt;b&gt;开始&lt;/b&gt;&lt;/font&gt;" style="text;html=1;align=center;verticalAlign=middle;resizable=0;points=[];autosize=1;strokeColor=none;fillColor=none;" parent="1" vertex="1"><mxGeometry x="1620" y="306" width="64" height="16" as="geometry"/></mxCell><mxCell id="312" value="发送正常心跳包" style="rounded=0;whiteSpace=wrap;html=1;strokeWidth=2;fontStyle=1;fontSize=17;" parent="1" vertex="1"><mxGeometry x="2223" y="842" width="120" height="60" as="geometry"/></mxCell><mxCell id="314" value="" style="endArrow=none;html=1;entryX=0.996;entryY=0.475;entryDx=0;entryDy=0;entryPerimeter=0;exitX=0.517;exitY=-0.017;exitDx=0;exitDy=0;exitPerimeter=0;strokeWidth=2;" parent="1" source="312" target="131" edge="1"><mxGeometry width="50" height="50" relative="1" as="geometry"><mxPoint x="1840" y="914" as="sourcePoint"/><mxPoint x="1890" y="864" as="targetPoint"/><Array as="points"><mxPoint x="2285" y="755"/></Array></mxGeometry></mxCell><mxCell id="315" value="" style="endArrow=none;html=1;strokeWidth=2;exitX=0.538;exitY=1.004;exitDx=0;exitDy=0;exitPerimeter=0;" parent="1" source="312" edge="1"><mxGeometry width="50" height="50" relative="1" as="geometry"><mxPoint x="2287" y="912" as="sourcePoint"/><mxPoint x="2128" y="1019" as="targetPoint"/><Array as="points"><mxPoint x="2287" y="1019"/></Array></mxGeometry></mxCell></root></mxGraphModel></diagram></mxfile>